<?xml version="1.0" standalone="no"?>
<!DOCTYPE svg PUBLIC "-//W3C//DTD SVG 20010904//EN"
 "http://www.w3.org/TR/2001/REC-SVG-20010904/DTD/svg10.dtd">
<svg version="1.0" xmlns="http://www.w3.org/2000/svg"
 width="1000.000000pt" height="1000.000000pt" viewBox="0 0 1000.000000 1000.000000"
 preserveAspectRatio="xMidYMid meet">
<metadata>
Created by potrace 1.11, written by Peter Selinger 2001-2013
</metadata>
<g transform="translate(0.000000,1000.000000) scale(0.100000,-0.100000)"
fill="#000000" stroke="none">
<path d="M3504 8437 c-28 -29 -169 -168 -315 -309 -145 -141 -321 -312 -390
-380 -70 -68 -254 -247 -409 -398 -155 -151 -342 -333 -415 -405 -73 -71 -251
-245 -395 -385 -144 -140 -313 -304 -375 -365 -62 -60 -237 -231 -390 -380
-443 -431 -522 -508 -673 -657 l-142 -141 199 -196 c331 -324 980 -962 1207
-1186 117 -115 367 -362 556 -547 189 -185 454 -446 590 -580 775 -763 1001
-983 1008 -983 8 0 194 180 829 802 102 100 232 227 289 281 l104 100 -55 53
c-50 50 -178 171 -401 380 -49 46 -108 102 -131 124 -23 22 -90 85 -149 140
-59 55 -138 129 -175 165 -38 36 -122 115 -186 175 -65 61 -141 133 -169 160
-29 28 -113 106 -186 175 -73 69 -150 141 -170 160 -20 19 -94 89 -165 155
-71 66 -163 154 -206 195 -43 41 -120 114 -171 162 -51 48 -129 121 -173 163
l-80 75 97 93 c53 50 169 162 259 247 89 85 186 178 214 205 29 28 114 109
189 180 75 72 174 166 220 210 47 44 150 143 231 220 81 77 171 163 200 190
28 28 125 120 215 205 89 85 197 189 241 230 480 459 491 470 501 470 4 0 8 6
8 14 0 8 9 18 20 21 37 12 59 -12 -360 395 -321 313 -469 457 -682 666 -86 85
-158 154 -160 154 -2 -1 -26 -24 -54 -53z"/>
<path d="M6359 8412 c-42 -42 -202 -199 -355 -349 -154 -149 -353 -344 -444
-432 -91 -89 -168 -161 -172 -161 -5 0 -8 -7 -8 -15 0 -8 -3 -15 -7 -15 -5 0
-41 -32 -82 -72 l-74 -71 114 -109 c63 -60 176 -169 253 -241 76 -73 162 -154
190 -181 107 -103 258 -247 415 -396 90 -85 198 -189 241 -230 43 -41 142
-136 220 -210 78 -74 172 -164 210 -200 37 -36 136 -130 220 -210 166 -158
299 -286 455 -435 l100 -96 -75 -70 c-41 -39 -131 -123 -199 -187 -68 -65
-143 -135 -166 -157 -23 -22 -102 -96 -175 -165 -73 -69 -164 -154 -201 -190
-38 -36 -117 -110 -176 -165 -58 -55 -125 -118 -148 -140 -66 -63 -323 -306
-390 -368 -33 -30 -88 -82 -121 -114 -34 -32 -116 -110 -184 -173 -67 -63
-151 -143 -187 -177 -35 -35 -66 -63 -67 -63 -2 0 -33 -28 -68 -62 -36 -35
-109 -105 -163 -155 l-97 -93 98 -96 c55 -53 241 -235 414 -404 586 -572 692
-675 704 -682 7 -4 126 106 303 280 160 158 430 423 600 590 169 167 484 476
698 687 675 664 910 895 910 895 1 0 120 117 265 261 146 143 383 377 528 518
l262 258 -142 141 c-79 77 -198 194 -265 259 -477 465 -734 715 -1169 1139
-170 166 -365 357 -434 423 -109 107 -321 313 -790 771 -71 69 -255 249 -411
400 -155 151 -296 290 -314 308 -18 17 -35 32 -36 32 -2 0 -38 -35 -80 -78z"/>
</g>
</svg>
